<svg xmlns="http://www.w3.org/2000/svg" width="710" height="309" viewBox="0 0 710 309">
<g>
<path d="M 119.28 246.57 C108.63,249.68 94.88,250.57 87.27,248.63 C73.90,245.22 62.43,236.75 56.53,225.94 C53.92,221.15 53.52,219.30 53.17,210.41 C52.82,201.15 53.00,199.87 55.42,194.75 C60.71,183.58 70.39,176.85 82.16,176.17 C90.39,175.69 95.07,177.17 100.29,181.87 C109.75,190.40 110.72,204.48 102.37,212.14 C100.79,213.59 98.38,215.09 97.00,215.47 L 94.50 216.16 L 97.16 213.83 C100.76,210.67 102.00,207.90 102.00,203.02 C102.00,194.54 96.37,189.01 87.71,189.00 C78.00,189.00 70.52,195.80 69.35,205.71 C68.09,216.32 74.43,226.56 85.36,231.56 C104.66,240.40 127.46,231.16 166.38,198.74 C178.53,188.62 206.63,163.25 211.69,157.84 L 213.88 155.50 L 196.69 155.48 C178.45,155.45 170.30,154.32 153.25,149.43 C137.04,144.78 99.00,129.47 98.66,127.46 C98.57,126.93 102.70,126.02 107.82,125.44 C116.91,124.41 118.95,123.46 118.98,120.25 C118.99,119.56 119.63,119.00 120.39,119.00 C122.19,119.00 126.94,122.92 125.19,122.97 C124.45,122.99 124.20,123.51 124.61,124.17 C125.10,124.96 124.78,125.13 123.61,124.68 C122.59,124.29 122.14,124.42 122.51,125.01 C123.30,126.30 127.70,126.29 128.50,125.00 C128.84,124.45 129.65,124.01 130.31,124.02 C131.02,124.02 130.90,124.41 130.01,124.97 C128.90,125.67 128.81,126.21 129.64,127.04 C130.47,127.87 131.30,127.83 132.83,126.88 C134.57,125.79 135.71,125.91 140.20,127.70 C153.77,133.13 174.29,138.00 183.54,138.00 C187.20,138.00 188.00,138.33 188.00,139.84 C188.00,144.01 209.65,145.44 213.94,141.56 C215.37,140.26 216.00,140.09 216.00,141.01 C216.00,141.74 216.34,142.00 216.75,141.58 C217.16,141.17 216.72,140.27 215.76,139.57 C214.22,138.44 214.37,138.29 217.07,138.22 C219.09,138.16 220.30,138.70 220.67,139.82 C222.40,145.02 227.16,154.11 230.31,158.21 L 233.92 162.92 L 219.71 176.37 C177.95,215.89 144.73,239.11 119.28,246.57 ZM 295.42 166.06 C289.59,168.10 274.43,169.43 269.00,168.38 C263.90,167.39 254.39,163.92 250.80,161.75 C245.84,158.74 238.32,151.46 235.43,146.88 C230.03,138.34 226.99,123.12 229.96,119.55 C231.08,118.20 232.93,117.91 239.42,118.07 C243.87,118.18 248.18,117.97 249.01,117.62 C250.25,117.09 250.54,118.10 250.69,123.45 C251.13,139.20 261.93,150.00 277.24,150.00 C292.40,150.00 303.12,138.84 303.39,122.78 C303.48,117.18 303.72,116.26 304.71,117.63 C305.38,118.54 306.07,119.71 306.25,120.24 C306.42,120.76 309.02,121.36 312.03,121.57 C315.04,121.79 318.76,122.23 320.29,122.57 C321.99,122.94 323.71,122.65 324.69,121.84 C326.16,120.63 326.26,121.15 325.78,127.50 C324.43,145.43 313.04,159.90 295.42,166.06 ZM 484.00 141.92 L 484.00 167.00 L 461.00 167.00 L 461.00 78.00 L 463.65 78.00 C466.29,78.00 466.30,78.01 464.40,80.11 C462.67,82.03 462.50,83.95 462.50,101.57 C462.50,118.81 462.70,121.12 464.28,122.71 C465.86,124.29 468.49,124.54 486.79,124.82 L 507.52 125.14 L 511.26 122.60 C513.93,120.79 515.00,120.46 515.00,121.46 C515.00,122.23 515.89,123.15 516.97,123.49 C519.54,124.31 535.09,122.08 536.89,120.63 C538.04,119.71 538.16,119.96 537.56,122.01 C536.20,126.65 531.30,132.49 526.13,135.63 L 520.99 138.76 L 525.71 145.13 C534.08,156.41 541.00,166.11 541.00,166.56 C541.00,166.80 535.82,167.00 529.50,167.00 L 518.00 167.00 L 513.75 160.96 C511.41,157.63 507.47,152.12 504.98,148.71 L 500.46 142.50 L 492.23 142.21 ZM 645.00 166.17 C640.74,167.82 636.78,168.37 627.50,168.63 C613.80,169.00 605.29,167.51 595.38,163.02 L 589.08 160.16 L 592.12 151.84 C593.79,147.26 595.32,143.34 595.52,143.15 C595.72,142.95 597.19,143.71 598.78,144.84 C600.37,145.98 605.21,148.09 609.54,149.54 C616.17,151.77 618.76,152.13 626.13,151.84 C638.18,151.37 642.48,148.02 640.61,140.57 C639.88,137.68 636.95,136.40 623.00,132.85 C610.28,129.62 599.18,124.95 596.27,121.60 C593.25,118.12 592.56,116.20 595.48,119.37 C598.11,122.24 598.14,122.25 606.81,121.56 C611.59,121.18 619.78,120.18 625.00,119.33 C637.21,117.35 640.88,117.40 647.02,119.61 C657.63,123.42 662.95,130.72 662.97,141.50 C662.99,152.94 656.64,161.66 645.00,166.17 ZM 255.11 236.50 C254.53,255.64 254.41,256.51 252.46,256.79 C246.43,257.66 238.50,246.29 235.51,232.50 C231.80,215.37 230.97,191.41 233.51,174.58 C234.33,169.13 235.15,164.52 235.33,164.34 C235.51,164.16 238.05,165.80 240.97,167.98 C243.89,170.16 248.22,172.68 250.59,173.59 C254.25,174.99 254.94,175.70 255.20,178.36 C255.50,181.48 255.55,181.50 262.15,182.00 C269.34,182.54 272.36,184.30 273.43,188.58 C274.38,192.35 271.56,196.54 265.20,200.86 C262.02,203.02 258.93,205.40 258.32,206.14 C256.51,208.39 255.75,215.50 255.11,236.50 ZM 384.00 167.45 C370.32,170.65 351.71,168.70 338.64,162.70 C333.90,160.52 332.92,159.68 333.49,158.26 C333.89,157.29 335.06,154.02 336.11,151.00 C337.16,147.98 338.24,144.90 338.51,144.17 C338.89,143.13 339.72,143.28 342.25,144.84 C348.66,148.80 360.37,152.00 368.46,152.00 C379.96,152.00 385.00,149.15 385.00,142.64 C385.00,139.15 381.24,136.54 373.26,134.50 C358.50,130.72 349.30,127.72 345.21,125.35 C340.35,122.54 334.96,115.75 335.08,112.60 C335.15,110.90 335.43,111.10 336.53,113.62 C338.25,117.53 343.39,121.93 347.12,122.67 C348.69,122.99 349.74,123.61 349.46,124.06 C349.19,124.51 350.33,124.48 352.00,124.00 C356.69,122.66 374.03,123.07 377.84,124.62 C380.16,125.56 381.74,125.67 383.02,124.99 C384.04,124.44 385.99,124.00 387.35,124.00 C391.48,124.00 393.24,122.99 391.90,121.38 C389.91,118.98 392.54,119.84 397.60,123.25 C404.67,128.01 406.50,131.77 406.50,141.50 C406.50,148.47 406.14,150.12 403.69,154.28 C400.09,160.40 392.55,165.44 384.00,167.45 ZM 575.98 138.75 L 576.00 167.00 L 554.00 167.00 L 554.22 130.75 C554.34,110.81 554.58,100.89 554.75,108.69 C554.95,117.99 554.94,121.94 556.79,123.22 C558.14,124.16 560.48,123.66 564.64,122.79 C564.91,122.73 565.19,122.67 565.48,122.61 C572.62,121.11 573.95,120.08 574.00,116.00 C574.02,114.62 574.47,112.82 575.00,112.00 C575.64,111.01 575.97,120.14 575.98,138.75 ZM 442.00 144.75 L 442.00 167.00 L 420.00 167.00 L 420.18 139.25 C420.28,123.99 420.53,113.63 420.73,116.24 C420.98,119.40 421.68,121.29 422.80,121.89 C423.74,122.39 428.44,122.73 433.25,122.65 L 442.00 122.50 ZM 94.89 126.75 C95.17,128.51 56.96,128.56 55.20,126.80 C54.44,126.04 54.00,122.22 54.00,116.41 C54.00,106.30 54.19,106.00 60.50,106.00 C62.33,106.00 64.01,106.52 64.22,107.15 C64.69,108.58 72.44,110.98 76.50,110.95 C78.15,110.94 80.62,110.29 82.00,109.50 C85.18,107.68 94.60,107.52 95.27,109.27 C95.54,109.97 95.45,112.33 95.08,114.52 C94.70,116.71 94.83,119.23 95.35,120.12 C95.89,121.02 95.95,122.57 95.50,123.62 C95.05,124.65 94.78,126.06 94.89,126.75 ZM 78.36 116.96 C78.93,117.53 81.62,118.00 84.32,118.00 C88.33,118.00 89.04,117.75 88.13,116.66 C87.52,115.92 87.31,115.02 87.68,114.66 C88.04,114.30 87.33,114.00 86.10,114.00 C84.87,114.00 82.94,113.50 81.81,112.90 C79.31,111.56 67.70,112.69 70.11,114.04 C70.95,114.51 72.91,115.13 74.48,115.41 C76.05,115.69 77.79,116.39 78.36,116.96 ZM 198.39 132.42 C197.54,134.63 195.90,134.84 190.50,133.41 C187.75,132.68 185.05,132.05 184.50,132.01 C183.95,131.96 184.62,131.29 186.00,130.50 C188.87,128.86 198.46,128.44 197.50,130.00 C197.16,130.55 197.34,131.00 197.91,131.00 C198.47,131.00 198.69,131.64 198.39,132.42 ZM 654.46 96.75 C653.62,98.76 652.84,100.45 652.72,100.52 C652.25,100.77 641.96,96.29 641.25,95.52 C640.50,94.72 645.49,95.34 649.73,96.57 C651.52,97.10 652.16,96.70 652.98,94.55 C653.54,93.08 654.44,92.16 654.99,92.49 C655.62,92.88 655.42,94.45 654.46,96.75 ZM 576.00 85.50 C576.00,89.62 575.78,93.00 575.50,93.00 C575.22,93.00 574.98,92.21 574.95,91.25 C574.88,88.92 573.84,80.56 573.58,80.27 C573.46,80.14 570.92,79.63 567.94,79.14 L 562.50 78.23 L 569.25 78.12 L 576.00 78.00 ZM 658.34 86.83 C657.55,89.82 656.20,89.55 655.82,86.33 C655.56,84.16 654.64,83.36 651.00,82.09 C646.97,80.69 646.78,80.49 649.18,80.20 C651.76,79.89 657.31,82.08 658.39,83.82 C658.67,84.28 658.65,85.63 658.34,86.83 ZM 125.61 135.91 C127.67,137.53 128.63,137.73 130.20,136.89 C132.19,135.83 132.19,135.82 130.20,134.43 C129.10,133.66 127.03,132.58 125.60,132.04 C122.06,130.69 122.06,133.12 125.61,135.91 ZM 534.94 92.72 C535.82,93.40 536.00,93.95 535.36,93.97 C534.23,94.00 528.00,88.68 528.00,87.69 C528.00,86.49 532.23,88.43 532.77,89.89 C533.10,90.77 534.08,92.05 534.94,92.72 ZM 526.02 84.52 C526.72,85.36 527.11,86.21 526.89,86.40 C526.25,86.98 522.00,84.76 522.00,83.85 C522.00,82.44 524.67,82.89 526.02,84.52 ZM 424.00 78.88 C424.00,79.37 423.10,80.00 422.00,80.29 C420.70,80.63 420.00,80.32 420.00,79.41 C420.00,78.63 420.90,78.00 422.00,78.00 C423.10,78.00 424.00,78.40 424.00,78.88 ZM 397.32 98.60 C396.74,100.12 395.39,100.45 394.66,99.25 C394.10,98.32 396.58,95.91 397.32,96.66 C397.62,96.95 397.62,97.83 397.32,98.60 ZM 556.00 79.50 C555.32,80.32 554.59,81.00 554.38,81.00 C554.17,81.00 554.00,80.32 554.00,79.50 C554.00,78.68 554.73,78.00 555.62,78.00 C556.95,78.00 557.02,78.27 556.00,79.50 Z" fill="rgb(3,51,114)"/>
<path d="M 119.00 65.13 C106.19,67.82 101.94,68.24 82.50,68.70 C70.40,68.99 60.16,68.87 59.75,68.44 C59.34,68.02 59.00,63.30 59.00,57.97 L 59.00 48.28 L 80.75 47.71 C109.54,46.97 122.82,44.59 152.23,34.94 C178.98,26.15 194.97,23.40 214.00,24.31 C228.86,25.01 236.64,26.73 258.00,34.03 C276.86,40.48 287.82,43.00 296.97,43.00 C304.88,43.00 305.46,43.87 304.63,54.65 C304.27,59.37 303.70,63.68 303.37,64.21 C302.62,65.42 289.33,64.40 279.16,62.36 C275.12,61.55 263.42,58.17 253.16,54.85 C229.77,47.30 223.00,46.00 207.02,46.00 C190.21,46.00 176.19,48.87 143.50,58.99 C138.00,60.70 126.97,63.46 119.00,65.13 ZM 94.89 126.75 C94.78,126.06 95.05,124.65 95.50,123.62 C95.95,122.57 95.89,121.02 95.35,120.12 C94.83,119.23 94.70,116.71 95.08,114.52 C95.45,112.33 95.54,109.97 95.27,109.27 C94.60,107.52 85.18,107.68 82.00,109.50 C80.62,110.29 78.15,110.94 76.50,110.95 C72.44,110.98 64.69,108.58 64.22,107.15 C64.08,106.74 63.33,106.38 62.32,106.17 C65.98,106.07 70.80,106.00 75.89,106.00 C92.96,106.00 95.02,105.81 99.06,103.87 C101.50,102.70 103.72,101.42 104.00,101.04 C104.28,100.66 105.85,99.66 107.50,98.84 C109.15,98.01 115.90,94.60 122.50,91.26 C144.50,80.14 160.53,74.10 182.00,68.85 C188.99,67.14 214.36,67.15 222.50,68.86 C225.80,69.55 231.70,71.04 235.61,72.16 L 242.72 74.21 L 235.02 81.85 C222.55,94.23 217.05,108.43 218.24,125.11 L 218.72 131.85 L 212.37 133.57 C207.06,135.01 200.57,135.20 194.40,134.24 C196.81,134.54 197.79,133.98 198.39,132.42 C198.69,131.64 198.47,131.00 197.91,131.00 C197.34,131.00 197.16,130.55 197.50,130.00 C198.46,128.44 188.87,128.86 186.00,130.50 C185.34,130.88 184.84,131.23 184.56,131.50 C178.47,128.59 168.00,119.70 168.00,117.22 C168.00,116.55 167.59,116.00 167.08,116.00 C165.12,116.00 162.83,106.04 163.17,98.99 C163.42,93.65 163.18,92.00 162.16,92.00 C157.85,92.00 116.00,113.66 116.00,115.88 C116.00,116.37 117.84,117.53 120.77,119.05 C120.63,119.02 120.50,119.00 120.39,119.00 C119.63,119.00 118.99,119.56 118.98,120.25 C118.95,123.46 116.91,124.41 107.82,125.44 C102.70,126.02 98.57,126.93 98.66,127.46 C98.76,128.02 101.82,129.63 106.55,131.76 L 97.82 128.00 L 82.97 128.00 C89.71,127.83 94.99,127.41 94.89,126.75 ZM 285.00 60.94 C285.59,60.99 286.15,61.04 286.70,61.10 C295.92,61.95 299.59,62.29 301.05,60.66 C302.01,59.57 302.01,57.62 302.00,54.38 C302.00,54.09 302.00,53.79 302.00,53.48 L 302.00 46.20 L 295.75 45.55 C280.19,43.94 273.47,42.41 257.54,36.88 C248.17,33.62 239.38,30.80 238.00,30.61 C236.62,30.42 234.82,30.00 234.00,29.68 C226.45,26.73 200.19,26.10 186.08,28.54 C170.93,31.15 133.67,43.01 133.18,45.38 C132.80,47.25 138.96,50.05 143.42,50.02 C145.11,50.01 150.44,50.23 155.26,50.52 C162.93,50.97 164.54,50.76 168.26,48.84 C175.01,45.36 180.14,44.73 203.00,44.61 C223.48,44.51 224.98,44.63 234.64,47.24 C240.22,48.75 249.45,51.59 255.14,53.56 C270.18,58.75 275.48,60.06 285.00,60.94 ZM 321.99 103.79 C324.25,106.86 325.71,113.80 325.85,121.49 C325.65,121.14 325.28,121.35 324.69,121.84 C323.71,122.65 321.99,122.94 320.29,122.57 C318.76,122.23 315.04,121.79 312.03,121.57 C309.02,121.36 306.42,120.76 306.25,120.24 C306.07,119.71 305.38,118.54 304.71,117.63 C303.72,116.26 303.48,117.18 303.39,122.78 C303.38,123.37 303.35,123.95 303.31,124.53 C303.88,113.20 298.03,101.83 287.21,97.31 C282.44,95.32 271.38,95.40 266.43,97.46 C256.55,101.58 250.65,111.08 250.73,122.76 C250.74,124.23 250.82,125.64 250.97,126.99 C250.82,125.84 250.72,124.66 250.69,123.45 C250.54,118.10 250.25,117.09 249.01,117.62 C248.18,117.97 243.87,118.18 239.42,118.07 C232.93,117.91 231.08,118.20 229.96,119.55 C228.94,120.77 228.63,123.37 228.88,126.59 C228.13,119.44 228.78,112.23 230.99,106.50 C235.78,94.03 244.38,85.15 256.76,79.89 C264.05,76.78 265.19,76.59 276.50,76.57 C288.04,76.55 296.55,78.06 300.97,80.94 C304.34,83.12 300.52,83.15 293.27,80.99 C279.55,76.91 260.44,78.54 254.87,84.27 C253.68,85.50 253.07,85.82 253.52,85.00 C254.08,83.99 253.66,84.10 252.24,85.34 C245.97,90.84 258.33,94.08 275.78,91.52 C280.14,90.87 281.39,91.05 283.00,92.50 C284.30,93.67 287.19,94.42 291.72,94.74 C296.99,95.12 299.49,95.87 302.92,98.11 C308.13,101.51 310.38,101.73 312.28,99.01 C313.05,97.91 313.98,97.31 314.34,97.67 C314.70,98.04 315.00,97.92 315.00,97.41 C315.00,96.27 311.52,92.45 307.07,88.71 C303.39,85.61 303.47,84.58 307.30,85.54 C310.04,86.23 320.00,97.28 320.00,99.64 C320.00,100.43 320.90,102.30 321.99,103.79 ZM 526.02 84.52 C525.93,84.41 525.83,84.31 525.73,84.21 C528.21,85.63 530.33,87.22 532.10,89.01 C530.74,87.79 528.00,86.72 528.00,87.69 C528.00,88.68 534.23,94.00 535.36,93.97 C535.55,93.96 535.67,93.91 535.72,93.81 C538.28,98.36 539.37,103.97 539.23,111.04 C539.15,114.61 538.71,117.82 537.88,120.72 C538.02,119.91 537.73,119.97 536.89,120.63 C535.09,122.08 519.54,124.31 516.97,123.49 C515.89,123.15 515.00,122.23 515.00,121.46 C515.00,120.55 514.12,120.74 511.96,122.13 C519.31,116.09 518.20,102.41 509.41,98.06 C507.44,97.09 502.86,96.59 495.25,96.53 L 484.00 96.44 L 484.00 124.77 C468.22,124.51 465.77,124.21 464.28,122.71 C462.70,121.12 462.50,118.81 462.50,101.57 C462.50,87.89 462.60,83.68 463.46,81.58 L 463.21 88.14 C462.98,94.30 463.25,96.11 464.64,97.50 C466.81,99.66 472.56,99.03 478.96,95.92 C483.00,93.95 484.59,93.79 495.61,94.22 C505.38,94.59 508.57,95.10 511.79,96.77 C514.00,97.92 516.07,98.60 516.40,98.27 C516.73,97.94 517.00,98.22 517.00,98.89 C517.00,99.57 517.39,99.88 517.87,99.58 C518.35,99.28 519.80,99.96 521.09,101.07 C522.95,102.69 524.29,102.99 527.70,102.53 C534.35,101.62 535.23,101.07 534.53,98.24 C532.61,90.60 520.52,82.60 508.34,80.91 C504.53,80.39 492.89,80.08 482.46,80.23 L 464.08 80.49 C464.18,80.36 464.29,80.24 464.40,80.11 C466.30,78.01 466.29,78.00 463.65,78.00 L 483.86 78.00 C509.41,78.00 514.74,78.66 523.57,83.06 C522.70,82.90 522.00,83.13 522.00,83.85 C522.00,84.76 526.25,86.98 526.89,86.40 C527.11,86.21 526.72,85.36 526.02,84.52 ZM 397.32 98.60 C397.62,97.83 397.62,96.95 397.32,96.66 C396.58,95.91 394.10,98.32 394.66,99.25 C394.68,99.28 394.70,99.31 394.73,99.35 C393.61,98.94 392.10,98.39 390.47,97.78 C385.58,95.96 382.39,95.55 372.83,95.53 C361.84,95.50 361.02,95.64 358.58,97.92 C355.52,100.80 355.10,105.91 357.75,108.22 C360.79,110.87 363.43,111.85 376.12,115.06 C382.28,116.61 387.36,118.22 391.50,120.02 C391.06,120.04 391.15,120.48 391.90,121.38 C393.24,122.99 391.48,124.00 387.35,124.00 C385.99,124.00 384.04,124.44 383.02,124.99 C381.74,125.67 380.16,125.56 377.84,124.62 C374.03,123.07 356.69,122.66 352.00,124.00 C350.33,124.48 349.19,124.51 349.46,124.06 C349.74,123.61 348.69,122.99 347.12,122.67 C343.39,121.93 338.25,117.53 336.53,113.62 C335.43,111.10 335.15,110.90 335.08,112.60 C335.08,112.75 335.08,112.90 335.10,113.07 C333.64,108.31 333.57,102.08 335.05,96.78 C337.52,87.87 348.08,79.46 359.75,77.12 C370.63,74.94 390.76,76.68 391.81,79.90 C392.15,80.95 391.67,81.14 389.88,80.63 C380.12,77.90 366.87,77.72 357.00,80.20 C350.04,81.95 339.59,89.68 342.75,90.75 C343.44,90.98 344.00,91.61 344.00,92.14 C344.00,92.68 343.44,92.83 342.75,92.48 C342.06,92.13 342.70,92.95 344.17,94.30 C346.64,96.58 347.21,96.69 352.17,95.80 C355.10,95.27 358.98,94.14 360.80,93.28 C363.45,92.03 365.89,91.87 373.30,92.48 C378.36,92.89 385.57,93.34 389.33,93.48 C395.85,93.72 396.20,93.61 397.22,91.11 C397.80,89.68 398.31,87.04 398.34,85.25 C398.37,83.46 398.65,82.01 398.95,82.02 C400.36,82.05 402.19,83.88 401.67,84.72 C401.35,85.24 400.83,87.11 400.52,88.86 C400.03,91.64 397.09,100.00 396.61,100.00 C396.59,100.00 396.46,99.96 396.23,99.88 C396.67,99.70 397.07,99.26 397.32,98.60 ZM 654.46 96.75 C655.42,94.45 655.62,92.88 654.99,92.49 C654.44,92.16 653.54,93.08 652.98,94.55 C652.16,96.70 651.52,97.10 649.73,96.57 C645.49,95.34 640.50,94.72 641.25,95.52 C641.55,95.85 643.65,96.87 645.96,97.91 C639.21,95.43 627.11,94.19 620.68,95.40 C615.96,96.29 612.00,100.15 612.00,103.88 C612.00,109.01 616.11,111.07 638.50,117.15 C639.90,117.53 641.23,117.91 642.49,118.31 C638.36,117.51 634.00,117.87 625.00,119.33 C619.78,120.18 611.59,121.18 606.81,121.56 C598.14,122.25 598.11,122.24 595.48,119.37 C592.56,116.20 593.25,118.12 596.27,121.60 C596.29,121.62 596.31,121.64 596.33,121.66 C593.52,119.42 592.00,117.17 592.00,115.02 C592.00,113.98 591.55,112.84 591.00,112.50 C590.45,112.16 590.00,109.13 590.00,105.77 C590.00,100.77 590.57,98.65 593.15,94.08 C596.09,88.87 598.98,85.65 599.89,86.56 C600.11,86.77 599.73,87.62 599.06,88.43 C596.84,91.10 597.06,95.00 599.53,96.61 C601.56,97.94 602.38,97.92 607.15,96.38 C610.09,95.44 613.57,93.84 614.88,92.83 C617.43,90.87 624.19,90.55 635.00,91.87 C644.24,93.00 653.46,89.21 652.79,84.56 C652.33,81.34 642.15,79.15 627.25,79.07 C614.86,79.00 611.12,77.80 619.64,76.64 C625.54,75.83 635.48,75.81 636.28,76.61 C636.61,76.95 638.87,77.38 641.29,77.57 C644.69,77.84 650.18,79.46 653.97,81.10 C652.23,80.46 650.38,80.06 649.18,80.20 C646.78,80.49 646.97,80.69 651.00,82.09 C654.64,83.36 655.56,84.16 655.82,86.33 C656.08,88.59 656.83,89.40 657.53,88.64 C657.16,89.77 656.66,91.13 656.02,92.78 L 652.95 100.75 L 652.08 100.39 C652.43,100.50 652.66,100.55 652.72,100.52 C652.84,100.45 653.62,98.76 654.46,96.75 ZM 424.00 78.88 C424.00,78.48 423.37,78.13 422.52,78.03 L 429.51 78.21 C436.26,78.39 440.47,78.91 440.70,79.60 C440.95,80.36 438.89,80.56 434.03,80.24 C430.16,79.99 425.87,80.07 424.50,80.41 C422.07,81.02 422.00,81.28 422.00,89.90 C422.00,99.95 422.54,100.86 429.03,101.73 C432.72,102.23 433.45,101.95 436.07,99.08 C438.48,96.44 439.00,95.00 439.00,90.94 C439.00,87.22 439.37,86.00 440.50,86.00 C441.76,86.00 441.98,90.77 442.00,122.50 L 433.25 122.65 C428.44,122.73 423.74,122.39 422.80,121.89 C421.68,121.29 420.98,119.40 420.73,116.24 C420.53,113.63 420.28,123.99 420.18,139.25 L 420.00 167.00 L 420.00 149.66 C420.00,140.13 419.70,120.09 419.34,105.13 L 418.68 77.93 L 421.76 78.01 C420.77,78.09 420.00,78.69 420.00,79.41 C420.00,80.32 420.70,80.63 422.00,80.29 C423.10,80.00 424.00,79.37 424.00,78.88 ZM 575.98 138.75 C575.97,120.14 575.64,111.01 575.00,112.00 C574.47,112.82 574.02,114.62 574.00,116.00 C573.95,120.08 572.62,121.11 565.48,122.61 C565.19,122.67 564.91,122.73 564.64,122.79 C560.48,123.66 558.14,124.16 556.79,123.22 C554.94,121.94 554.95,117.99 554.75,108.69 C554.58,100.89 554.34,110.81 554.22,130.75 L 554.00 167.00 L 554.00 78.00 L 576.00 78.00 L 569.25 78.12 L 562.50 78.23 L 567.94 79.14 C569.85,79.45 571.57,79.78 572.60,80.00 L 556.00 80.00 L 556.00 88.38 C556.00,97.53 556.36,98.21 562.00,99.82 C563.92,100.37 566.10,100.63 566.83,100.41 C567.56,100.18 568.54,100.00 569.01,100.00 C569.48,100.00 570.56,99.29 571.43,98.43 C572.61,97.25 573.00,94.76 573.00,88.43 L 573.00 80.09 C573.34,80.17 573.55,80.23 573.58,80.27 C573.84,80.56 574.88,88.92 574.95,91.25 C574.98,92.21 575.22,93.00 575.50,93.00 C575.78,93.00 576.00,89.62 576.00,85.50 L 576.00 167.00 ZM 215.43 138.31 C214.41,138.45 214.64,138.75 215.76,139.57 C216.72,140.27 217.16,141.17 216.75,141.58 C216.34,142.00 216.00,141.74 216.00,141.01 C216.00,140.09 215.37,140.26 213.94,141.56 C209.65,145.44 188.00,144.01 188.00,139.84 C188.00,138.33 187.20,138.00 183.54,138.00 C180.20,138.00 175.39,137.36 169.96,136.30 C178.26,137.67 187.14,138.14 199.81,138.13 C207.54,138.13 212.38,138.16 215.43,138.31 ZM 78.36 116.96 C77.79,116.39 76.05,115.69 74.48,115.41 C72.91,115.13 70.95,114.51 70.11,114.04 C67.70,112.69 79.31,111.56 81.81,112.90 C82.94,113.50 84.87,114.00 86.10,114.00 C87.33,114.00 88.04,114.30 87.68,114.66 C87.31,115.02 87.52,115.92 88.13,116.66 C89.04,117.75 88.33,118.00 84.32,118.00 C81.62,118.00 78.93,117.53 78.36,116.96 ZM 147.82 130.46 C145.13,129.57 142.56,128.65 140.20,127.70 C135.71,125.91 134.57,125.79 132.83,126.88 C131.30,127.83 130.47,127.87 129.64,127.04 C128.81,126.21 128.90,125.67 130.01,124.97 C130.90,124.41 131.02,124.02 130.31,124.02 C129.65,124.01 128.84,124.45 128.50,125.00 C127.70,126.29 123.30,126.30 122.51,125.01 C122.14,124.42 122.59,124.29 123.61,124.68 C124.78,125.13 125.10,124.96 124.61,124.17 C124.20,123.51 124.45,122.99 125.19,122.97 C126.29,122.94 124.82,121.38 123.14,120.23 C129.75,123.44 139.75,127.64 147.82,130.46 ZM 125.61 135.91 C122.06,133.12 122.06,130.69 125.60,132.04 C127.03,132.58 129.10,133.66 130.20,134.43 C132.19,135.82 132.19,135.83 130.20,136.89 C128.63,137.73 127.67,137.53 125.61,135.91 ZM 554.00 79.50 C554.00,80.32 554.17,81.00 554.38,81.00 C554.59,81.00 555.32,80.32 556.00,79.50 C557.02,78.27 556.95,78.00 555.62,78.00 C554.73,78.00 554.00,78.68 554.00,79.50 ZM 116.71 136.11 C128.91,141.12 144.36,146.88 153.25,149.43 C155.99,150.21 158.51,150.90 160.87,151.51 C148.40,148.55 134.73,143.68 116.71,136.11 ZM 406.32 146.94 C406.46,145.52 406.50,143.80 406.50,141.50 C406.50,137.48 406.19,134.48 405.32,132.01 C406.75,135.43 407.14,139.44 406.71,144.25 C406.62,145.17 406.49,146.06 406.32,146.94 ZM 497.82 124.99 C505.27,124.94 507.84,124.61 510.05,123.42 L 507.52 125.14 ZM 536.08 125.39 C533.86,129.80 530.46,133.27 525.79,135.94 L 523.22 137.40 L 526.13 135.63 C530.10,133.22 533.91,129.22 536.08,125.39 ZM 656.50 125.15 C661.15,129.09 662.95,134.19 662.97,141.50 C662.95,134.64 660.80,129.19 656.50,125.15 ZM 295.42 166.06 C307.37,161.88 316.46,153.88 321.49,143.56 C316.54,153.92 307.55,161.82 295.42,166.06 ZM 534.94 92.72 C534.08,92.05 533.10,90.77 532.77,89.89 C532.72,89.74 532.62,89.58 532.49,89.43 C533.52,90.52 534.42,91.68 535.20,92.94 C535.12,92.87 535.03,92.79 534.94,92.72 ZM 384.00 167.45 C390.15,166.01 395.78,162.99 399.79,159.14 C395.91,163.04 390.54,165.91 384.00,167.45 ZM 277.98 149.99 C282.85,149.79 287.70,148.38 291.66,145.92 C287.80,148.42 283.16,149.87 277.98,149.99 ZM 265.68 147.57 C266.32,147.89 266.99,148.18 267.66,148.43 C264.07,147.17 260.93,145.18 258.35,142.59 C260.38,144.52 262.81,146.17 265.68,147.57 ZM 337.36 117.88 C338.51,119.52 340.01,121.21 341.61,122.66 C339.85,121.23 338.50,119.67 337.36,117.88 ZM 235.43 146.88 C233.07,143.15 231.29,138.66 230.14,133.90 C231.30,138.50 233.15,143.28 235.43,146.88 ZM 55.81 106.55 C54.83,107.07 54.38,108.09 54.17,110.06 C54.37,107.73 54.79,106.91 55.58,106.61 C55.63,106.59 55.71,106.57 55.81,106.55 ZM 62.29 127.79 C57.86,127.60 55.68,127.28 55.20,126.80 C55.64,127.24 58.41,127.57 62.29,127.79 ZM 358.78 130.51 C362.82,131.73 367.63,133.06 373.26,134.50 C377.15,135.49 380.03,136.62 381.97,137.92 C380.03,136.62 377.15,135.49 373.26,134.50 C367.58,133.06 362.81,131.75 358.78,130.51 ZM 192.79 133.96 C191.09,133.64 189.43,133.23 187.83,132.73 C188.66,132.93 189.58,133.17 190.50,133.41 C191.35,133.64 192.11,133.82 192.79,133.96 ZM 399.71 124.77 C399.06,124.27 398.36,123.76 397.60,123.25 C397.47,123.16 397.33,123.07 397.21,122.99 C398.11,123.56 398.94,124.15 399.71,124.77 ZM 298.67 138.95 C299.42,137.81 300.08,136.62 300.64,135.41 C300.07,136.65 299.41,137.84 298.67,138.95 Z" fill="rgb(11,99,158)"/>
<path d="M 285.00 60.94 C275.48,60.06 270.18,58.75 255.14,53.56 C249.45,51.59 240.22,48.75 234.64,47.24 C224.98,44.63 223.48,44.51 203.00,44.61 C180.14,44.73 175.01,45.36 168.26,48.84 C164.54,50.76 162.93,50.97 155.26,50.52 C150.44,50.23 145.11,50.01 143.42,50.02 C138.96,50.05 132.80,47.25 133.18,45.38 C133.67,43.01 170.93,31.15 186.08,28.54 C200.19,26.10 226.45,26.73 234.00,29.68 C234.82,30.00 236.62,30.42 238.00,30.61 C239.38,30.80 248.17,33.62 257.54,36.88 C273.47,42.41 280.19,43.94 295.75,45.55 L 302.00 46.20 L 302.00 53.48 C302.00,53.79 302.00,54.09 302.00,54.38 C302.01,57.62 302.01,59.57 301.05,60.66 C299.59,62.29 295.92,61.95 286.70,61.10 C286.15,61.04 285.59,60.99 285.00,60.94 ZM 463.46 81.58 C463.63,81.15 463.84,80.81 464.08,80.49 L 482.46 80.23 C492.89,80.08 504.53,80.39 508.34,80.91 C520.52,82.60 532.61,90.60 534.53,98.24 C535.23,101.07 534.35,101.62 527.70,102.53 C524.29,102.99 522.95,102.69 521.09,101.07 C519.80,99.96 518.35,99.28 517.87,99.58 C517.39,99.88 517.00,99.57 517.00,98.89 C517.00,98.22 516.73,97.94 516.40,98.27 C516.07,98.60 514.00,97.92 511.79,96.77 C508.57,95.10 505.38,94.59 495.61,94.22 C484.59,93.79 483.00,93.95 478.96,95.92 C472.56,99.03 466.81,99.66 464.64,97.50 C463.25,96.11 462.98,94.30 463.21,88.14 ZM 306.96 85.46 C303.46,84.64 303.50,85.71 307.07,88.71 C311.52,92.45 315.00,96.27 315.00,97.41 C315.00,97.92 314.70,98.04 314.34,97.67 C313.98,97.31 313.05,97.91 312.28,99.01 C310.38,101.73 308.13,101.51 302.92,98.11 C299.49,95.87 296.99,95.12 291.72,94.74 C287.19,94.42 284.30,93.67 283.00,92.50 C281.39,91.05 280.14,90.87 275.78,91.52 C258.33,94.08 245.97,90.84 252.24,85.34 C253.66,84.10 254.08,83.99 253.52,85.00 C253.07,85.82 253.68,85.50 254.87,84.27 C260.44,78.54 279.55,76.91 293.27,80.99 C297.92,82.37 301.16,82.86 301.99,82.45 C302.00,82.49 302.00,82.53 302.00,82.57 C302.00,83.31 303.79,84.45 305.97,85.11 C306.30,85.21 306.63,85.32 306.96,85.46 ZM 398.79 82.14 C398.56,82.53 398.37,83.78 398.34,85.25 C398.31,87.04 397.80,89.68 397.22,91.11 C396.20,93.61 395.85,93.72 389.33,93.48 C385.57,93.34 378.36,92.89 373.30,92.48 C365.89,91.87 363.45,92.03 360.80,93.28 C358.98,94.14 355.10,95.27 352.17,95.80 C347.21,96.69 346.64,96.58 344.17,94.30 C342.70,92.95 342.06,92.13 342.75,92.48 C343.44,92.83 344.00,92.68 344.00,92.14 C344.00,91.61 343.44,90.98 342.75,90.75 C339.59,89.68 350.04,81.95 357.00,80.20 C366.87,77.72 380.12,77.90 389.88,80.63 C391.67,81.14 392.15,80.95 391.81,79.90 C390.76,76.68 370.63,74.94 359.75,77.12 C370.16,75.03 387.28,76.26 392.41,79.47 C393.56,80.19 396.20,81.32 398.29,81.98 C398.46,82.03 398.63,82.09 398.79,82.14 ZM 599.47 86.41 C602.41,83.93 605.98,81.85 610.10,80.26 C612.52,79.34 614.77,78.20 615.09,77.73 C615.15,77.65 615.31,77.56 615.54,77.48 C613.47,78.32 617.89,79.02 627.25,79.07 C642.15,79.15 652.33,81.34 652.79,84.56 C653.46,89.21 644.24,93.00 635.00,91.87 C624.19,90.55 617.43,90.87 614.88,92.83 C613.57,93.84 610.09,95.44 607.15,96.38 C602.38,97.92 601.56,97.94 599.53,96.61 C597.06,95.00 596.84,91.10 599.06,88.43 C599.73,87.62 600.11,86.77 599.89,86.56 C599.78,86.44 599.63,86.40 599.47,86.41 ZM 440.70 79.83 L 441.18 83.00 C441.28,83.68 441.38,85.66 441.47,88.62 C441.25,86.57 440.93,86.00 440.50,86.00 C439.37,86.00 439.00,87.22 439.00,90.94 C439.00,95.00 438.48,96.44 436.07,99.08 C433.45,101.95 432.72,102.23 429.03,101.73 C422.54,100.86 422.00,99.95 422.00,89.90 C422.00,81.28 422.07,81.02 424.50,80.41 C425.87,80.07 430.16,79.99 434.03,80.24 C438.35,80.53 440.46,80.40 440.70,79.83 ZM 556.00 80.00 L 572.60 80.00 C572.75,80.03 572.88,80.06 573.00,80.09 L 573.00 88.43 C573.00,94.76 572.61,97.25 571.43,98.43 C570.56,99.29 569.48,100.00 569.01,100.00 C568.54,100.00 567.56,100.18 566.83,100.41 C566.10,100.63 563.92,100.37 562.00,99.82 C556.36,98.21 556.00,97.53 556.00,88.38 ZM 289.56 77.37 C285.82,76.83 281.44,76.56 276.50,76.57 C272.68,76.58 270.01,76.61 267.89,76.76 C269.61,76.56 271.56,76.45 274.00,76.36 C279.28,76.18 284.82,76.59 289.56,77.37 ZM 429.51 78.21 L 422.52 78.03 L 422.51 78.03 L 429.59 78.21 L 440.50 78.50 L 440.65 79.52 C440.12,78.87 435.98,78.39 429.51,78.21 ZM 315.64 93.05 C313.52,90.59 311.04,88.09 309.21,86.68 C310.94,87.84 312.74,89.61 314.97,92.25 C315.20,92.52 315.42,92.78 315.64,93.05 ZM 636.41 76.70 C637.68,77.05 639.78,77.40 641.60,77.56 C644.20,77.78 648.17,78.88 651.58,80.15 C648.11,78.87 644.03,77.78 641.29,77.57 C639.09,77.39 637.02,77.02 636.41,76.70 ZM 593.15 94.08 C592.64,94.98 592.22,95.77 591.86,96.52 C592.62,94.70 593.61,92.96 594.82,91.32 C594.27,92.16 593.71,93.08 593.15,94.08 ZM 398.43 95.87 C399.33,93.34 400.27,90.33 400.52,88.86 C400.75,87.60 401.08,86.28 401.36,85.45 C401.04,86.55 400.63,88.28 400.41,89.54 C400.19,90.74 399.30,93.49 398.43,95.87 ZM 245.96 86.11 C239.23,91.25 234.24,98.04 230.99,106.48 C234.25,98.02 239.25,91.22 245.96,86.11 ZM 421.76 78.01 L 421.76 78.01 L 418.68 77.93 Z" fill="rgb(87,146,190)"/>
<path d="M 0.00 154.50 L 0.00 0.00 L 355.00 0.00 L 710.00 0.00 L 710.00 154.50 L 710.00 309.00 L 355.00 309.00 L 0.00 309.00 L 0.00 154.50 ZM 255.11 236.50 C255.75,215.50 256.51,208.39 258.32,206.14 C258.93,205.40 262.02,203.02 265.20,200.86 C271.56,196.54 274.38,192.35 273.43,188.58 C272.36,184.30 269.34,182.54 262.15,182.00 C255.55,181.50 255.50,181.48 255.20,178.36 C254.94,175.70 254.25,174.99 250.59,173.59 C248.22,172.68 243.89,170.16 240.97,167.98 C238.05,165.80 235.51,164.16 235.33,164.34 C235.15,164.52 234.33,169.13 233.51,174.58 C230.97,191.41 231.80,215.37 235.51,232.50 C238.50,246.29 246.43,257.66 252.46,256.79 C254.41,256.51 254.53,255.64 255.11,236.50 ZM 119.28 246.57 C144.73,239.11 177.95,215.89 219.71,176.37 L 233.92 162.92 L 230.31 158.21 C227.16,154.11 222.40,145.02 220.67,139.81 C220.17,138.30 217.97,138.13 199.81,138.13 C177.83,138.14 167.27,136.73 151.34,131.64 C138.10,127.42 116.00,117.57 116.00,115.88 C116.00,113.66 157.85,92.00 162.16,92.00 C163.18,92.00 163.42,93.65 163.17,98.99 C162.83,106.04 165.12,116.00 167.08,116.00 C167.59,116.00 168.00,116.55 168.00,117.22 C168.00,119.87 179.96,129.84 185.74,132.01 C193.95,135.10 204.47,135.71 212.37,133.57 L 218.72 131.85 L 218.24 125.11 C217.05,108.43 222.55,94.23 235.02,81.85 L 242.72 74.21 L 235.61 72.16 C231.70,71.04 225.80,69.55 222.50,68.86 C214.36,67.15 188.99,67.14 182.00,68.85 C160.53,74.10 144.50,80.14 122.50,91.26 C115.90,94.60 109.15,98.01 107.50,98.84 C105.85,99.66 104.28,100.66 104.00,101.04 C103.72,101.42 101.50,102.70 99.06,103.87 C95.02,105.81 92.96,106.00 75.89,106.00 C65.59,106.00 56.45,106.27 55.58,106.61 C54.30,107.10 54.00,108.95 54.00,116.41 C54.00,122.22 54.44,126.04 55.20,126.80 C56.06,127.66 62.34,128.00 77.11,128.00 L 97.82 128.00 L 109.66 133.11 C149.91,150.47 169.24,155.44 196.69,155.48 L 213.88 155.50 L 211.69 157.84 C206.63,163.25 178.53,188.62 166.38,198.74 C127.46,231.16 104.66,240.40 85.36,231.56 C74.43,226.56 68.09,216.32 69.35,205.71 C70.52,195.80 78.00,189.00 87.71,189.00 C96.37,189.01 102.00,194.54 102.00,203.02 C102.00,207.90 100.76,210.67 97.16,213.83 L 94.50 216.16 L 97.00 215.47 C98.38,215.09 100.79,213.59 102.37,212.14 C110.72,204.48 109.75,190.40 100.29,181.87 C95.07,177.17 90.39,175.69 82.16,176.17 C70.39,176.85 60.71,183.58 55.42,194.75 C53.00,199.87 52.82,201.15 53.17,210.41 C53.52,219.30 53.92,221.15 56.53,225.94 C62.43,236.75 73.90,245.22 87.27,248.63 C94.88,250.57 108.63,249.68 119.28,246.57 ZM 295.42 166.06 C313.55,159.72 324.68,145.20 325.75,126.50 C326.30,116.95 324.74,107.52 321.99,103.79 C320.90,102.30 320.00,100.43 320.00,99.64 C320.00,98.85 317.74,95.52 314.97,92.25 C311.33,87.95 308.84,85.97 305.97,85.11 C303.79,84.45 302.00,83.31 302.00,82.57 C302.00,79.18 287.17,75.89 274.00,76.36 C266.02,76.65 263.26,77.22 256.76,79.94 C244.41,85.11 235.80,93.98 230.99,106.50 C226.51,118.14 228.46,135.84 235.43,146.88 C238.32,151.46 245.84,158.74 250.80,161.75 C254.39,163.92 263.90,167.39 269.00,168.38 C274.43,169.43 289.59,168.10 295.42,166.06 ZM 384.00 167.45 C397.25,164.34 405.67,155.74 406.71,144.25 C408.13,128.38 400.66,121.25 376.12,115.06 C363.43,111.85 360.79,110.87 357.75,108.22 C355.10,105.91 355.52,100.80 358.58,97.92 C361.02,95.64 361.84,95.50 372.83,95.53 C382.39,95.55 385.58,95.96 390.47,97.78 C393.75,99.00 396.51,100.00 396.61,100.00 C397.03,100.00 399.98,91.87 400.41,89.54 C400.66,88.14 401.14,86.13 401.47,85.08 C401.96,83.55 401.34,82.95 398.29,81.98 C396.20,81.32 393.56,80.19 392.41,79.47 C387.28,76.26 370.16,75.03 359.75,77.12 C348.08,79.46 337.52,87.87 335.05,96.78 C333.23,103.30 333.76,111.23 336.33,116.09 C340.75,124.47 347.93,128.05 373.26,134.50 C381.23,136.54 385.00,139.15 385.00,142.64 C385.00,149.15 379.96,152.00 368.46,152.00 C360.37,152.00 348.66,148.80 342.25,144.84 C339.72,143.28 338.89,143.13 338.51,144.17 C338.24,144.90 337.16,147.98 336.11,151.00 C335.06,154.02 333.89,157.29 333.49,158.26 C332.92,159.68 333.90,160.52 338.64,162.70 C351.71,168.70 370.32,170.65 384.00,167.45 ZM 645.00 166.17 C656.64,161.66 662.99,152.94 662.97,141.50 C662.94,128.14 656.92,122.15 638.50,117.15 C616.11,111.07 612.00,109.01 612.00,103.88 C612.00,100.15 615.96,96.29 620.68,95.40 C627.36,94.15 640.17,95.53 646.73,98.21 L 652.95 100.75 L 656.02 92.78 C658.38,86.67 658.83,84.50 657.96,83.45 C656.37,81.53 646.52,77.99 641.60,77.56 C639.34,77.36 636.67,76.87 635.66,76.46 C633.33,75.52 615.89,76.60 615.09,77.73 C614.77,78.20 612.52,79.34 610.10,80.26 C597.49,85.11 590.00,94.63 590.00,105.82 C590.00,109.15 590.45,112.16 591.00,112.50 C591.55,112.84 592.00,113.98 592.00,115.02 C592.00,121.07 604.16,128.06 623.00,132.85 C636.95,136.40 639.88,137.68 640.61,140.57 C642.48,148.02 638.18,151.37 626.13,151.84 C618.76,152.13 616.17,151.77 609.54,149.54 C605.21,148.09 600.37,145.98 598.78,144.84 C597.19,143.71 595.72,142.95 595.52,143.15 C595.32,143.34 593.79,147.26 592.12,151.84 L 589.08 160.16 L 595.38 163.02 C605.29,167.51 613.80,169.00 627.50,168.63 C636.78,168.37 640.74,167.82 645.00,166.17 ZM 441.93 127.25 C441.89,105.39 441.55,85.47 441.18,83.00 L 440.50 78.50 L 429.59 78.21 L 418.68 77.93 L 419.34 105.13 C419.70,120.09 420.00,140.13 420.00,149.66 L 420.00 167.00 L 431.00 167.00 L 442.00 167.00 L 441.93 127.25 ZM 484.00 154.46 L 484.00 141.92 L 492.23 142.21 L 500.46 142.50 L 504.98 148.71 C507.47,152.12 511.41,157.63 513.75,160.96 L 518.00 167.00 L 529.50 167.00 C535.82,167.00 541.00,166.80 541.00,166.56 C541.00,166.11 534.08,156.41 525.69,145.10 L 520.94 138.70 L 525.79 135.94 C534.67,130.86 538.98,122.88 539.23,111.04 C539.52,97.06 534.95,88.80 523.86,83.21 C514.86,78.67 509.70,78.00 483.86,78.00 L 461.00 78.00 L 461.00 122.50 L 461.00 167.00 L 472.50 167.00 L 484.00 167.00 L 484.00 154.46 ZM 576.00 122.50 L 576.00 78.00 L 565.00 78.00 L 554.00 78.00 L 554.00 122.50 L 554.00 167.00 L 565.00 167.00 L 576.00 167.00 L 576.00 122.50 ZM 119.00 65.13 C126.97,63.46 138.00,60.70 143.50,58.99 C176.19,48.87 190.21,46.00 207.02,46.00 C223.00,46.00 229.77,47.30 253.16,54.85 C263.42,58.17 275.12,61.55 279.16,62.36 C289.33,64.40 302.62,65.42 303.37,64.21 C303.70,63.68 304.27,59.37 304.63,54.65 C305.46,43.87 304.88,43.00 296.97,43.00 C287.82,43.00 276.86,40.48 258.00,34.03 C236.64,26.73 228.86,25.01 214.00,24.31 C194.97,23.40 178.98,26.15 152.23,34.94 C122.82,44.59 109.54,46.97 80.75,47.71 L 59.00 48.28 L 59.00 57.97 C59.00,63.30 59.34,68.02 59.75,68.44 C60.16,68.87 70.40,68.99 82.50,68.70 C101.94,68.24 106.19,67.82 119.00,65.13 ZM 265.68 147.57 C255.64,142.66 250.80,134.63 250.73,122.76 C250.65,111.08 256.55,101.58 266.43,97.46 C271.38,95.40 282.44,95.32 287.21,97.31 C303.83,104.26 308.73,127.36 296.63,141.67 C289.79,149.76 275.65,152.46 265.68,147.57 ZM 484.00 110.72 L 484.00 96.44 L 495.25 96.53 C502.86,96.59 507.44,97.09 509.41,98.06 C518.71,102.66 519.42,117.73 510.58,123.11 C508.03,124.67 505.48,124.99 495.75,125.00 L 484.00 125.00 L 484.00 110.72 Z" fill="rgb(253,254,254)"/>
</g>
</svg>